PathFileType	4	(X/Y/Z)	s05c0403.trc
DataRate	CameraRate	NumFrames	NumMarkers	Units	OrigDataRate	OrigDataStartFrame	OrigNumFrames
200	200	6	49	mm	200	500	2000
Frame#	Time	racr			lacr			c7			jug			rlel			rdr			llel			ldr			s2			lic			ric			lasi			rasi			rpsi			lpsi			rgt			lgt			rth1			rth2			rth3			rth4			rlfc			rsh1			rsh2			rsh3			rsh4			rlmal			rmmal			rcal			rtoe			rmt5			lth1			lth2			lth4			lth3			llfc			lmfc			lsh1			lsh2			lsh3			lsh4			llmal			lmmal			lcal			ltoe			lmt5			SBIKE			LBIKE			RBIKE			
		X1	Y1	Z1	X2	Y2	Z2	X3	Y3	Z3	X4	Y4	Z4	X5	Y5	Z5	X6	Y6	Z6	X7	Y7	Z7	X8	Y8	Z8	X9	Y9	Z9	X10	Y10	Z10	X11	Y11	Z11	X12	Y12	Z12	X13	Y13	Z13	X14	Y14	Z14	X15	Y15	Z15	X16	Y16	Z16	X17	Y17	Z17	X18	Y18	Z18	X19	Y19	Z19	X20	Y20	Z20	X21	Y21	Z21	X22	Y22	Z22	X23	Y23	Z23	X24	Y24	Z24	X25	Y25	Z25	X26	Y26	Z26	X27	Y27	Z27	X28	Y28	Z28	X29	Y29	Z29	X30	Y30	Z30	X31	Y31	Z31	X32	Y32	Z32	X33	Y33	Z33	X34	Y34	Z34	X35	Y35	Z35	X36	Y36	Z36	X37	Y37	Z37	X38	Y38	Z38	X39	Y39	Z39	X40	Y40	Z40	X41	Y41	Z41	X42	Y42	Z42	X43	Y43	Z43	X44	Y44	Z44	X45	Y45	Z45	X46	Y46	Z46	X47	Y47	Z47	X48	Y48	Z48	X49	Y49	Z49	
500	2.5000	731.076522	1291.149644	-129.252609	747.145156	1297.544331	-440.687859	723.749759	1397.099768	-294.927584	678.342475	1231.738995	-289.637510	535.061332	1125.372006	34.248053	681.426738	966.994312	-50.917559	542.737481	1145.419116	-629.697263	676.510815	967.777219	-513.003523	151.338398	1250.421204	-315.664683	301.684515	1258.011769	-440.305112	288.370924	1233.680225	-157.904014	338.038622	1195.638097	-407.466953	317.137582	1168.657874	-190.295840	190.235999	1286.577894	-262.811595	196.976490	1299.709787	-348.756881	193.925730	1109.111555	-159.313398	246.711816	1169.192573	-484.619357	214.751628	997.834437	-133.261724	242.445192	913.650628	-123.426139	225.515496	827.272608	-129.059307	279.229124	915.909685	-124.818513	254.789590	676.266251	-140.063465	180.937455	596.741977	-112.916829	161.407096	510.705816	-123.288647	105.424563	445.918714	-127.112641	190.705840	498.728422	-145.174049	51.109259	320.610480	-132.846388	77.374478	336.610893	-212.169592	-22.661717	319.285361	-182.311487	219.629049	150.046580	-149.398684	116.637631	185.179452	-94.221231	348.881380	1069.789004	-482.143093	428.791071	1044.838728	-467.533666	446.224315	1073.165201	-449.227595	487.329922	976.428197	-458.588356	584.969811	872.292140	-405.083718	554.692985	866.579590	-295.793350	484.673294	806.533998	-434.702572	431.929098	736.480678	-430.902753	350.137959	702.198552	-438.110062	450.687935	711.770002	-408.704547	256.492622	611.951598	-443.102741	289.363974	623.619249	-364.573867	178.679115	611.545182	-407.224684	412.886503	433.757066	-398.485876	312.605801	471.455775	-466.713643	-169.587733	899.957235	-274.067800	-53.495195	79.475109	-474.542562	-53.410927	79.576038	-77.034082	
501	2.5050	731.817872	1289.105018	-132.115076	747.377744	1295.330495	-443.278958	725.253435	1395.570000	-297.607591	678.280966	1230.556298	-291.935214	535.320737	1126.125993	33.025944	681.326673	966.954379	-50.753121	542.034724	1143.876517	-631.881043	676.435993	967.793513	-513.364523	151.946258	1254.729882	-315.228976	301.978115	1260.722277	-440.622209	289.114880	1236.754004	-158.212104	338.201082	1198.246324	-408.114372	317.433307	1171.447632	-190.464546	190.165918	1290.954617	-262.859219	197.924850	1303.339446	-348.677241	194.031033	1112.359657	-159.425964	246.030325	1172.240188	-484.579684	215.802871	1000.629439	-133.513705	244.428115	916.710326	-123.908359	228.312194	830.143911	-129.369249	281.113214	919.360732	-125.554960	258.065641	679.208359	-140.397369	183.076954	600.930360	-113.133927	161.956076	515.174587	-123.667247	104.817294	451.417171	-127.316395	190.914500	502.686158	-145.780836	47.829003	327.095363	-132.832645	74.401289	342.721032	-212.403510	-25.900970	327.017090	-182.532617	212.929855	152.791328	-149.461083	110.717339	190.201228	-94.619589	346.047447	1071.936305	-484.252188	426.684459	1045.076988	-468.364152	444.664605	1073.163740	-450.270600	484.293448	975.761472	-459.434779	580.735838	870.471567	-405.845519	551.143738	864.807939	-296.708606	481.006584	803.026915	-434.614978	429.549092	732.339477	-431.606907	348.372598	696.555395	-438.478031	448.835003	707.982647	-409.323831	256.637669	605.269326	-443.669886	289.208973	617.318210	-364.389699	178.730659	601.672605	-407.143316	419.332727	433.177395	-399.050598	317.401195	466.624350	-467.286813	-169.727413	899.900395	-274.215385	-53.512299	79.436603	-474.568161	-53.426689	79.579493	-77.060997	
502	2.5100	732.480163	1287.340469	-134.622744	747.568972	1293.088549	-445.794819	726.646072	1393.896628	-300.232972	678.231818	1229.105655	-294.242824	535.501628	1126.760014	31.884167	681.197635	966.930581	-50.596654	541.316693	1142.367247	-634.015837	676.379700	967.750179	-513.749613	152.639450	1258.436633	-315.066059	302.122233	1263.087898	-440.981336	289.917541	1239.701640	-158.416562	338.376897	1200.452789	-408.725107	317.863701	1174.238203	-190.383040	190.515366	1294.925843	-262.641937	198.592868	1306.619703	-348.454306	194.330298	1115.285504	-159.274468	245.514940	1174.997134	-484.551452	217.282628	1003.285179	-133.837224	246.924921	919.601008	-124.313304	231.760058	832.865736	-129.611140	283.557394	922.697387	-126.321526	261.883033	681.884935	-140.684938	185.891243	604.830624	-113.241585	163.056070	519.637969	-123.905896	104.769667	456.934003	-127.412554	191.616060	506.676501	-146.254750	45.136504	333.709309	-132.643087	71.910225	348.958834	-212.480854	-28.619926	335.131608	-182.492319	206.453656	155.720451	-149.618247	105.226563	195.438304	-94.949883	344.301838	1072.713010	-484.644480	424.469762	1044.881707	-469.044130	443.003827	1072.535314	-451.304724	481.254476	974.610572	-459.797225	576.184165	867.931317	-406.934920	547.295802	862.309654	-297.814828	477.173728	798.938560	-435.232258	426.986757	727.331517	-432.286591	346.422743	690.127158	-438.995930	446.695047	703.562168	-410.007006	256.289003	597.335862	-443.474290	288.792589	610.364409	-363.985417	178.490412	590.834274	-406.471544	425.279583	432.201573	-399.832386	321.821831	461.354180	-467.859465	-169.605200	899.857730	-274.615242	-53.527868	79.386449	-474.607016	-53.437012	79.582956	-77.091474	
503	2.5150	733.117319	1285.476810	-136.963789	747.749419	1290.908966	-448.204547	727.948636	1392.209233	-302.730445	678.151231	1227.607029	-296.414710	535.667215	1127.355093	30.849534	681.067082	966.891524	-50.401181	540.561939	1140.805284	-636.040045	676.299905	967.744292	-514.088161	153.384103	1262.054741	-315.129089	302.343885	1264.968796	-441.456033	290.647668	1242.408589	-158.686375	338.663864	1202.296719	-409.364016	318.280504	1176.701702	-190.197945	191.067916	1298.610577	-262.209631	199.588253	1309.776352	-348.549216	194.909028	1118.095098	-158.872792	245.157800	1177.521017	-484.545079	219.087209	1005.664248	-133.751062	249.887073	922.382009	-124.713438	235.735808	835.356401	-129.732760	286.434089	925.879356	-127.163053	266.260063	684.661536	-140.890478	189.232878	608.796746	-113.256476	164.814387	523.954037	-123.952411	105.300420	462.347050	-127.264530	192.890540	510.564900	-146.751879	42.877589	340.444822	-132.237718	69.681640	355.347738	-212.267237	-30.922275	343.429346	-182.228326	200.307955	159.017081	-149.656163	100.038569	200.814584	-95.247402	342.551934	1073.188217	-485.035533	422.162749	1044.216412	-469.776382	441.137322	1071.547241	-452.136441	477.998967	973.168376	-460.440429	571.578054	864.961598	-408.080025	543.075047	859.317608	-299.080790	472.966039	794.170442	-436.533183	424.122186	721.659299	-433.167198	344.257138	682.930639	-439.506749	444.277729	698.416175	-410.747807	255.692961	588.970119	-443.568585	288.435071	602.509337	-363.909885	178.187968	579.400458	-405.368017	431.010949	430.957622	-401.250512	325.763691	455.625548	-468.434290	-169.708682	899.764580	-274.640438	-53.533942	79.335461	-474.620538	-53.436299	79.573605	-77.123020	
504	2.5200	733.643480	1283.668615	-139.262311	747.964044	1288.708978	-450.537864	729.227582	1390.476459	-305.088910	678.172833	1226.049864	-298.465178	535.895329	1127.882619	29.869571	680.887103	966.912976	-50.067418	539.840877	1139.222687	-637.937765	676.214317	967.739607	-514.408777	154.152296	1265.297151	-315.150295	302.568138	1266.537281	-441.875009	291.457683	1244.983255	-158.855392	338.824574	1203.728644	-409.760577	319.341434	1179.389736	-189.248507	191.551234	1301.812353	-262.707326	200.696820	1312.097280	-348.149052	195.677071	1120.633579	-158.460968	244.944677	1179.773954	-484.563978	221.351894	1007.835718	-133.559207	253.348282	924.938191	-125.042601	240.074509	838.290274	-129.296102	289.782247	928.943887	-128.063676	271.148703	687.216210	-140.891614	193.057054	612.655270	-113.066051	166.955171	528.276519	-123.788847	106.251845	467.791756	-126.857144	194.539997	514.260382	-147.211216	40.861290	347.292123	-131.729832	67.907194	361.844540	-211.993734	-32.953244	351.907178	-181.817410	194.332999	162.618823	-149.806365	95.045097	206.380759	-95.434117	340.791437	1073.825834	-485.938773	419.851200	1043.267148	-470.501534	439.314061	1070.246168	-452.891019	474.668192	971.484490	-461.151178	566.956285	861.625657	-409.416078	538.544063	855.745345	-300.660165	468.514772	788.668420	-437.947583	421.101554	715.282713	-433.986168	341.987287	674.914878	-439.927119	441.655319	692.664562	-411.442147	254.388079	578.962736	-441.988814	287.827733	594.392199	-363.598827	177.208758	567.974929	-404.411869	436.238429	429.210890	-402.522780	329.476993	449.487699	-468.970702	-169.699249	899.717047	-274.819809	-53.559734	79.365882	-474.723319	-53.438725	79.529024	-77.174963	
505	2.5250	734.147918	1281.864849	-141.460554	748.170838	1286.486931	-452.751230	730.462757	1388.620300	-307.484178	678.236823	1224.429947	-300.428495	536.023810	1128.363144	28.986727	680.786068	966.881351	-49.814583	539.115617	1137.671019	-639.773450	676.160794	967.794765	-514.673448	154.857218	1268.077494	-315.017965	302.802909	1267.705623	-442.235191	292.475326	1247.223159	-159.106097	339.036683	1205.013725	-410.127336	319.713523	1181.685442	-189.497873	192.805448	1304.300935	-263.385356	201.710765	1314.299363	-347.335220	196.804837	1123.013980	-157.824833	244.746052	1181.645262	-484.449425	224.417148	1009.699213	-133.819966	257.235245	927.405135	-125.430644	244.807526	840.440713	-129.180102	293.556140	931.859260	-129.099790	276.592775	689.779716	-140.621111	197.284703	616.356991	-112.641899	169.422747	532.603140	-123.465340	107.476693	473.263367	-126.228816	196.131617	518.461409	-147.320308	38.802590	354.301521	-131.183867	66.271572	368.556108	-211.441251	-35.037581	360.999922	-181.139612	188.587694	166.541100	-149.802279	90.207280	212.224953	-95.553375	339.196780	1073.854984	-486.301548	417.691948	1041.983282	-471.119977	437.641896	1068.569262	-453.497624	471.410609	969.386224	-461.950723	562.177079	857.893630	-411.003163	533.747346	851.806829	-301.965013	463.909358	782.408241	-439.530921	417.879902	708.204561	-434.817119	339.593029	666.244803	-440.295195	438.966655	686.106984	-412.028891	253.745761	569.708097	-441.676829	286.665295	586.273608	-361.419535	177.023577	555.560165	-402.810284	441.018892	426.914881	-403.782090	332.952521	443.082830	-469.330783	-169.613494	899.731609	-274.885176	-53.562900	79.189644	-474.702486	-53.470352	79.571177	-77.163333	
